<svg width="445" height="363" viewBox="0 0 445 363" fill="none" xmlns="http://www.w3.org/2000/svg">
<path d="M431 61.0001L431.4 61.2998L431 61.0001ZM339 102.5L338.986 103L339 102.5ZM185.5 28.9996L185.42 29.4931L185.5 28.9996ZM6.99995 263.5L7.49762 263.548L6.99995 263.5ZM6.99989 363L9.60274 357.847L3.83823 358.169L6.99989 363ZM443 0.999986C442.501 1.02229 442.501 1.02228 442.501 1.02228C442.501 1.02228 442.501 1.02229 442.501 1.0223C442.501 1.02234 442.501 1.0224 442.501 1.02249C442.501 1.02268 442.501 1.02299 442.501 1.02341C442.501 1.02425 442.501 1.02557 442.501 1.02736C442.501 1.03092 442.501 1.03637 442.501 1.04366C442.502 1.05826 442.503 1.08027 442.504 1.10954C442.506 1.16808 442.51 1.25564 442.514 1.37096C442.522 1.6016 442.532 1.94325 442.543 2.38572C442.564 3.27067 442.585 4.5588 442.582 6.16863L443.582 6.16995C443.585 4.55097 443.564 3.25444 443.543 2.36195C443.532 1.91569 443.521 1.57041 443.513 1.33631C443.509 1.21926 443.506 1.13 443.503 1.06981C443.502 1.03971 443.501 1.01688 443.501 1.00147C443.5 0.993765 443.5 0.987917 443.5 0.983948C443.5 0.981961 443.5 0.980446 443.5 0.9794C443.5 0.978878 443.5 0.978475 443.5 0.978188C443.5 0.978044 443.5 0.97793 443.5 0.977846C443.5 0.977805 443.5 0.977765 443.5 0.977742C443.5 0.97771 443.5 0.977682 443 0.999986ZM442.283 16.4836C442.103 19.6615 441.824 23.1507 441.397 26.7744L442.39 26.8913C442.82 23.2443 443.1 19.7347 443.281 16.54L442.283 16.4836ZM439.809 36.9649C439.135 40.3618 438.302 43.732 437.274 46.9422L438.226 47.2473C439.268 43.994 440.11 40.5859 440.79 37.1596L439.809 36.9649ZM433.332 56.4009C432.496 57.9405 431.588 59.3814 430.6 60.7004L431.4 61.2998C432.421 59.937 433.355 58.4544 434.211 56.878L433.332 56.4009ZM430.6 60.7004C429.7 61.9021 428.804 63.0715 427.91 64.2095L428.696 64.8272C429.595 63.6829 430.496 62.5074 431.4 61.2998L430.6 60.7004ZM422.269 71.0054C420.257 73.2907 418.247 75.4222 416.228 77.4084L416.929 78.1212C418.967 76.1169 420.993 73.968 423.02 71.6662L422.269 71.0054ZM409.685 83.3109C407.358 85.222 405.005 86.9582 402.608 88.5322L403.157 89.3681C405.585 87.7737 407.967 86.0162 410.32 84.0836L409.685 83.3109ZM394.995 92.9189C392.375 94.2277 389.688 95.3738 386.915 96.3713L387.253 97.3123C390.063 96.3018 392.786 95.1402 395.442 93.8135L394.995 92.9189ZM378.49 98.8901C375.708 99.5661 372.833 100.123 369.848 100.572L369.997 101.561C373.008 101.108 375.913 100.545 378.726 99.8618L378.49 98.8901ZM361.081 101.567C358.247 101.794 355.316 101.944 352.278 102.027L352.305 103.026C355.359 102.943 358.307 102.792 361.161 102.564L361.081 101.567ZM343.437 102.086C341.986 102.069 340.512 102.04 339.013 102L338.986 103C340.49 103.04 341.969 103.069 343.426 103.086L343.437 102.086ZM339.013 102C337.616 101.963 336.202 101.865 334.772 101.71L334.665 102.704C336.12 102.862 337.561 102.961 338.986 103L339.013 102ZM326.395 100.221C323.714 99.5723 320.986 98.7603 318.219 97.8052L317.893 98.7505C320.686 99.7146 323.444 100.536 326.16 101.193L326.395 100.221ZM310.247 94.7203C307.675 93.6253 305.076 92.429 302.454 91.1469L302.015 92.0453C304.65 93.334 307.265 94.5377 309.855 95.6403L310.247 94.7203ZM294.85 87.2334C292.366 85.8965 289.867 84.4979 287.356 83.0504L286.857 83.9167C289.375 85.3684 291.883 86.7718 294.376 88.1139L294.85 87.2334ZM279.982 78.6898C277.552 77.2198 275.114 75.7162 272.671 74.1901L272.141 75.0382C274.587 76.5663 277.029 78.0725 279.464 79.5455L279.982 78.6898ZM265.418 69.6091C263.008 68.0738 260.596 66.5276 258.187 64.9811L257.647 65.8226C260.056 67.3692 262.469 68.9162 264.88 70.4525L265.418 69.6091ZM250.958 60.3451C248.534 58.7955 246.116 57.2566 243.706 55.7396L243.173 56.5859C245.58 58.1012 247.997 59.6387 250.419 61.1876L250.958 60.3451ZM236.409 51.2068C233.936 49.6944 231.475 48.2173 229.03 46.7878L228.525 47.6511C230.964 49.0767 233.419 50.5504 235.887 52.0599L236.409 51.2068ZM221.553 42.5487C218.988 41.1443 216.444 39.8079 213.927 38.5546L213.481 39.4498C215.985 40.6966 218.517 42.0268 221.073 43.4258L221.553 42.5487ZM206.118 34.9116C203.407 33.7388 200.732 32.6856 198.099 31.7721L197.772 32.7168C200.378 33.6211 203.03 34.6651 205.721 35.8294L206.118 34.9116ZM189.822 29.35C188.393 29.0163 186.979 28.7338 185.58 28.5061L185.42 29.4931C186.794 29.7169 188.186 29.9949 189.595 30.3238L189.822 29.35ZM185.58 28.5061C184.033 28.2541 182.496 28.0313 180.971 27.8373L180.844 28.8293C182.358 29.0218 183.884 29.243 185.42 29.4931L185.58 28.5061ZM171.819 27.0073C168.707 26.8408 165.644 26.797 162.627 26.8717L162.652 27.8714C165.642 27.7974 168.68 27.8408 171.765 28.0059L171.819 27.0073ZM153.449 27.4757C150.363 27.8081 147.33 28.268 144.349 28.8504L144.541 29.8319C147.494 29.2549 150.499 28.7993 153.556 28.4699L153.449 27.4757ZM135.399 31.0072C132.434 31.8601 129.524 32.8377 126.67 33.9346L127.028 34.8681C129.856 33.7814 132.739 32.813 135.676 31.9682L135.399 31.0072ZM118.224 37.5996C115.465 38.9375 112.761 40.3901 110.112 41.9517L110.62 42.8131C113.246 41.2649 115.926 39.8252 118.66 38.4994L118.224 37.5996ZM102.37 46.9287C99.8669 48.6751 97.4164 50.5218 95.0181 52.4632L95.6472 53.2405C98.0277 51.3135 100.459 49.4812 102.942 47.7488L102.37 46.9287ZM88.0638 58.4879C85.8286 60.5551 83.6422 62.7071 81.5043 64.9388L82.2264 65.6306C84.3509 63.4129 86.5229 61.2751 88.7428 59.222L88.0638 58.4879ZM75.3332 71.7537C73.356 74.0607 71.4236 76.4377 69.5355 78.8803L70.3267 79.4919C72.2048 77.0621 74.1266 74.6981 76.0925 72.4045L75.3332 71.7537ZM64.0905 86.2774C62.3456 88.7648 60.6418 91.3096 58.979 93.9078L59.8213 94.4468C61.4768 91.8602 63.1726 89.3271 64.9092 86.8517L64.0905 86.2774ZM54.1819 101.74C52.6434 104.364 51.1431 107.034 49.6808 109.748L50.5611 110.222C52.0179 107.519 53.5123 104.859 55.0445 102.246L54.1819 101.74ZM45.4588 117.908C44.1038 120.636 42.7844 123.401 41.5005 126.2L42.4095 126.617C43.6892 123.827 45.0041 121.071 46.3544 118.352L45.4588 117.908ZM37.7918 134.609C36.6026 137.412 35.4472 140.245 34.3251 143.104L35.2559 143.47C36.3748 140.619 37.5269 137.794 38.7124 134.999L37.7918 134.609ZM31.0824 151.689C30.0405 154.557 29.0307 157.446 28.0527 160.355L29.0006 160.674C29.976 157.773 30.9832 154.89 32.0223 152.031L31.0824 151.689ZM25.2274 169.091C24.3203 172.009 23.4443 174.943 22.5989 177.889L23.5601 178.165C24.4035 175.226 25.2775 172.299 26.1823 169.388L25.2274 169.091ZM20.1609 186.738C19.3794 189.696 18.6281 192.662 17.9068 195.635L18.8786 195.871C19.5983 192.905 20.3479 189.945 21.1277 186.994L20.1609 186.738ZM15.8307 204.577C15.1671 207.569 14.5333 210.563 13.9291 213.558L14.9094 213.756C15.5123 210.767 16.1447 207.779 16.8069 204.794L15.8307 204.577ZM12.1994 222.571C11.6498 225.588 11.13 228.602 10.6396 231.61L11.6266 231.771C12.116 228.769 12.6347 225.761 13.1832 222.75L12.1994 222.571ZM9.24662 240.682C8.80791 243.727 8.39942 246.762 8.02084 249.785L9.01308 249.909C9.39089 246.893 9.79855 243.864 10.2364 240.825L9.24662 240.682ZM6.9643 258.907C6.80267 260.426 6.64868 261.941 6.50228 263.452L7.49762 263.548C7.64373 262.041 7.79738 260.529 7.95869 259.012L6.9643 258.907ZM6.50228 263.452C6.37117 264.804 6.24922 266.184 6.13598 267.587L7.13272 267.668C7.24559 266.27 7.36706 264.895 7.49762 263.548L6.50228 263.452ZM5.57758 275.877C5.42734 278.596 5.30326 281.37 5.2024 284.179L6.20177 284.215C6.30243 281.412 6.42619 278.644 6.57607 275.933L5.57758 275.877ZM4.97057 292.485C4.91408 295.248 4.87659 298.024 4.8554 300.792L5.85538 300.8C5.87651 298.036 5.91394 295.264 5.97035 292.505L4.97057 292.485ZM4.8383 309.099C4.84744 311.904 4.87094 314.68 4.90586 317.405L5.90582 317.393C5.87089 314.67 5.84742 311.897 5.83827 309.096L4.8383 309.099ZM5.04844 325.712C5.10971 328.577 5.18118 331.353 5.25897 334.012L6.25853 333.983C6.18085 331.327 6.10942 328.553 6.04822 325.69L5.04844 325.712ZM5.53291 342.309C5.64413 345.337 5.75865 348.12 5.86829 350.597L6.86732 350.553C6.75779 348.078 6.64338 345.297 6.53224 342.272L5.53291 342.309ZM431 61.0001L431.801 61.5995L431 61.0001ZM339 102.5L338.973 103.5L339 102.5ZM185.5 28.9996L185.339 29.9866L185.5 28.9996ZM6.99995 263.5L7.99529 263.596L6.99995 263.5ZM6.99989 363L12.2055 352.693L0.676579 353.338L6.99989 363ZM443 0.999986C442.001 1.04459 442.001 1.04456 442.001 1.04454C442.001 1.04454 442.001 1.04453 442.001 1.04453C442.001 1.04454 442.001 1.04458 442.001 1.04465C442.001 1.04479 442.001 1.04504 442.001 1.04541C442.001 1.04616 442.001 1.04738 442.001 1.04906C442.001 1.05243 442.002 1.05767 442.002 1.06477C442.002 1.07895 442.003 1.10055 442.005 1.12941C442.007 1.18712 442.01 1.27384 442.014 1.38829C442.022 1.6172 442.033 1.95703 442.043 2.3976C442.064 3.27879 442.085 4.56272 442.082 6.16798L444.082 6.17061C444.085 4.54705 444.064 3.24632 444.043 2.35006C444.032 1.90191 444.021 1.55482 444.013 1.31899C444.009 1.20107 444.005 1.11096 444.003 1.04994C444.002 1.01943 444.001 0.996182 444 0.98037C444 0.972464 443.999 0.966416 443.999 0.962244C443.999 0.960158 443.999 0.958543 443.999 0.957397C443.999 0.956825 443.999 0.95637 443.999 0.956035C443.999 0.955867 443.999 0.955728 443.999 0.955619C443.999 0.955565 443.999 0.955505 443.999 0.955476C443.999 0.955426 443.999 0.955381 443 0.999986ZM441.783 16.4554C441.604 19.625 441.326 23.1039 440.9 26.7159L442.887 26.9498C443.318 23.2912 443.599 19.7713 443.78 16.5682L441.783 16.4554ZM439.319 36.8676C438.648 40.2497 437.819 43.6011 436.798 46.7897L438.702 47.3998C439.751 44.1249 440.598 40.698 441.281 37.257L439.319 36.8676ZM432.893 56.1624C432.067 57.6836 431.171 59.1036 430.2 60.4007L431.801 61.5995C432.837 60.2148 433.785 58.7113 434.65 57.1165L432.893 56.1624ZM430.2 60.4007C429.302 61.5995 428.408 62.7658 427.517 63.9006L429.089 65.1361C429.991 63.9886 430.894 62.81 431.801 61.5995L430.2 60.4007ZM421.894 70.6749C419.889 72.9521 417.887 75.0748 415.877 77.0519L417.28 78.4776C419.326 76.4643 421.361 74.3066 423.395 71.9967L421.894 70.6749ZM409.368 82.9245C407.054 84.8249 404.715 86.5505 402.333 88.1143L403.431 89.7861C405.875 88.1814 408.271 86.4133 410.637 84.47L409.368 82.9245ZM394.771 92.4716C392.169 93.7714 389.501 94.9099 386.746 95.9008L387.423 97.7828C390.25 96.7658 392.991 95.5965 395.665 94.2608L394.771 92.4716ZM378.372 98.4042C375.606 99.0765 372.745 99.6307 369.774 100.078L370.072 102.056C373.096 101.6 376.016 101.035 378.844 100.348L378.372 98.4042ZM361.042 101.069C358.217 101.294 355.295 101.445 352.264 101.527L352.318 103.526C355.38 103.443 358.337 103.291 361.201 103.063L361.042 101.069ZM343.443 101.586C341.995 101.569 340.523 101.541 339.027 101.5L338.973 103.5C340.479 103.54 341.961 103.569 343.42 103.586L343.443 101.586ZM339.027 101.5C337.644 101.463 336.244 101.366 334.826 101.213L334.611 103.201C336.079 103.36 337.533 103.461 338.973 103.5L339.027 101.5ZM326.513 99.7349C323.848 99.0905 321.136 98.2831 318.383 97.3326L317.73 99.2232C320.536 100.192 323.309 101.018 326.043 101.679L326.513 99.7349ZM310.442 94.2602C307.88 93.1691 305.289 91.9765 302.674 90.6978L301.795 92.4944C304.437 93.7866 307.06 94.9939 309.659 96.1004L310.442 94.2602ZM295.087 86.7931C292.608 85.4588 290.113 84.0627 287.606 82.6172L286.607 84.3499C289.129 85.8037 291.641 87.2094 294.139 88.5542L295.087 86.7931ZM280.241 78.262C277.813 76.7935 275.377 75.2912 272.936 73.7661L271.876 75.4622C274.324 76.9913 276.768 78.4988 279.206 79.9733L280.241 78.262ZM265.686 69.1874C263.277 67.6525 260.866 66.1068 258.457 64.5603L257.377 66.2434C259.786 67.79 262.199 69.3374 264.612 70.8742L265.686 69.1874ZM251.227 59.9239C248.803 58.3739 246.384 56.8343 243.972 55.3164L242.907 57.009C245.313 58.5235 247.728 60.0603 250.15 61.6088L251.227 59.9239ZM236.67 50.7803C234.194 49.2665 231.731 47.7876 229.282 46.3561L228.273 48.0827C230.708 49.5064 233.16 50.9783 235.626 52.4865L236.67 50.7803ZM221.793 42.1101C219.223 40.7031 216.674 39.3636 214.15 38.107L213.258 39.8974C215.756 41.1409 218.282 42.468 220.833 43.8644L221.793 42.1101ZM206.317 34.4527C203.596 33.2757 200.909 32.2178 198.263 31.2997L197.608 33.1892C200.201 34.0889 202.841 35.1282 205.523 36.2883L206.317 34.4527ZM189.936 28.8631C188.497 28.527 187.071 28.2423 185.661 28.0126L185.339 29.9866C186.702 30.2085 188.083 30.4842 189.481 30.8107L189.936 28.8631ZM185.661 28.0126C184.108 27.7597 182.565 27.5361 181.034 27.3413L180.781 29.3253C182.29 29.5171 183.809 29.7374 185.339 29.9866L185.661 28.0126ZM171.845 26.508C168.721 26.3409 165.645 26.2968 162.615 26.3718L162.664 28.3712C165.641 28.2975 168.666 28.3407 171.739 28.5052L171.845 26.508ZM153.396 26.9785C150.296 27.3125 147.248 27.7745 144.253 28.3597L144.637 30.3226C147.576 29.7484 150.566 29.2949 153.61 28.967L153.396 26.9785ZM135.261 30.5267C132.282 31.3836 129.358 32.3659 126.49 33.4679L127.208 35.3348C130.022 34.2533 132.891 33.2895 135.814 32.4488L135.261 30.5267ZM118.006 37.1497C115.234 38.4936 112.519 39.9526 109.858 41.5209L110.874 43.2439C113.489 41.7024 116.157 40.269 118.878 38.9493L118.006 37.1497ZM102.084 46.5186C99.5707 48.2721 97.1108 50.1259 94.7035 52.0746L95.9618 53.6291C98.3334 51.7093 100.755 49.8842 103.228 48.1589L102.084 46.5186ZM87.7243 58.1208C85.4814 60.1951 83.2879 62.3542 81.1432 64.5929L82.5874 65.9765C84.7052 63.7658 86.87 61.6351 89.0823 59.5891L87.7243 58.1208ZM74.9536 71.4283C72.9707 73.7419 71.0329 76.1255 69.1399 78.5746L70.7223 79.7976C72.5955 77.3743 74.512 75.0169 76.4722 72.7299L74.9536 71.4283ZM63.6812 85.9902C61.932 88.4837 60.2244 91.0344 58.5579 93.6382L60.2424 94.7164C61.8942 92.1355 63.5861 89.6083 65.3185 87.1388L63.6812 85.9902ZM53.7505 101.487C52.2089 104.116 50.7057 106.792 49.2406 109.51L51.0012 110.459C52.4553 107.761 53.9467 105.107 55.4758 102.499L53.7505 101.487ZM45.011 117.685C43.6536 120.418 42.332 123.188 41.046 125.992L42.8639 126.826C44.1416 124.04 45.4543 121.289 46.8022 118.575L45.011 117.685ZM37.3315 134.413C36.1405 137.221 34.9834 140.059 33.8596 142.922L35.7214 143.652C36.8386 140.806 37.989 137.985 39.1727 135.194L37.3315 134.413ZM30.6125 151.518C29.5691 154.39 28.558 157.283 27.5788 160.196L29.4745 160.833C30.4487 157.936 31.4545 155.057 32.4922 152.201L30.6125 151.518ZM24.7499 168.943C23.8417 171.865 22.9646 174.802 22.1183 177.751L24.0408 178.303C24.8831 175.367 25.756 172.444 26.6598 169.537L24.7499 168.943ZM19.6775 186.611C18.8951 189.571 18.143 192.541 17.4209 195.517L19.3645 195.989C20.0834 193.026 20.8322 190.069 21.6111 187.122L19.6775 186.611ZM15.3425 204.469C14.6782 207.464 14.0438 210.461 13.439 213.459L15.3995 213.855C16.0018 210.869 16.6336 207.884 17.2951 204.902L15.3425 204.469ZM11.7075 222.481C11.1574 225.501 10.637 228.518 10.1461 231.529L12.1201 231.851C12.6089 228.852 13.1272 225.847 13.6752 222.84L11.7075 222.481ZM8.75172 240.611C8.31258 243.659 7.90367 246.697 7.52469 249.723L9.50919 249.971C9.88662 246.958 10.2939 243.932 10.7313 240.896L8.75172 240.611ZM6.4671 258.854C6.30531 260.374 6.15116 261.891 6.00461 263.403L7.99529 263.596C8.14124 262.09 8.29474 260.58 8.45587 259.065L6.4671 258.854ZM6.00461 263.403C5.87321 264.759 5.75105 266.141 5.6376 267.547L7.63111 267.708C7.74376 266.312 7.86499 264.941 7.99529 263.596L6.00461 263.403ZM5.07834 275.85C4.9279 278.572 4.8037 281.35 4.70273 284.161L6.70144 284.233C6.80199 281.433 6.92563 278.668 7.0753 275.96L5.07834 275.85ZM4.47069 292.475C4.4141 295.241 4.37658 298.018 4.35541 300.788L6.35538 300.803C6.37647 298.041 6.41387 295.272 6.47024 292.516L4.47069 292.475ZM4.33828 309.101C4.34746 311.907 4.37099 314.685 4.40593 317.412L6.40575 317.386C6.37089 314.665 6.34745 311.894 6.3383 309.094L4.33828 309.101ZM4.54855 325.722C4.60986 328.589 4.68136 331.367 4.75919 334.027L6.75835 333.968C6.68066 331.313 6.60927 328.541 6.5481 325.679L4.54855 325.722ZM5.03325 342.327C5.14452 345.357 5.25911 348.141 5.36875 350.62L7.36681 350.531C7.25737 348.057 7.14299 345.278 7.03191 342.254L5.03325 342.327Z" fill="black"/>
</svg>
