<svg width="743" height="336" viewBox="0 0 743 336" fill="none" xmlns="http://www.w3.org/2000/svg">
<path d="M233 334.5L233 335L233 334.5ZM640.5 2.00009L640.46 2.49849L640.5 2.00009ZM738 119L740.274 113.693L734.541 114.377L738 119ZM1.00011 119C0.526878 119.161 0.526885 119.161 0.526893 119.161C0.526899 119.161 0.52691 119.161 0.526921 119.162C0.526944 119.162 0.526975 119.162 0.527014 119.162C0.527093 119.162 0.527206 119.162 0.527352 119.163C0.527644 119.164 0.52807 119.165 0.528631 119.167C0.529751 119.17 0.531409 119.175 0.533603 119.181C0.537991 119.194 0.544526 119.213 0.55321 119.238C0.570577 119.288 0.596541 119.363 0.631114 119.462C0.700261 119.66 0.803848 119.955 0.941992 120.341C1.21828 121.113 1.6328 122.253 2.18648 123.727L3.12255 123.375C2.57082 121.907 2.15814 120.772 1.88357 120.004C1.74629 119.62 1.64354 119.328 1.57521 119.133C1.54104 119.035 1.51548 118.961 1.49851 118.912C1.49002 118.887 1.48368 118.869 1.47949 118.857C1.47739 118.85 1.47583 118.846 1.47481 118.843C1.47429 118.841 1.47392 118.84 1.47367 118.84C1.47355 118.839 1.47346 118.839 1.47341 118.839C1.47338 118.839 1.47336 118.839 1.47335 118.839C1.47334 118.839 1.47334 118.839 1.47334 118.839C1.47334 118.839 1.47334 118.839 1.00011 119ZM5.83569 133.014C6.9346 135.706 8.2055 138.738 9.64964 142.063L10.5669 141.665C9.12582 138.347 7.85779 135.321 6.76152 132.636L5.83569 133.014ZM13.7023 151.137C15.0154 153.998 16.4278 157.003 17.9401 160.133L18.8405 159.698C17.3312 156.574 15.9216 153.575 14.6112 150.72L13.7023 151.137ZM22.3431 169.02C23.7919 171.874 25.3141 174.805 26.9098 177.8L27.7924 177.33C26.1998 174.341 24.6807 171.416 23.2348 168.568L22.3431 169.02ZM31.6451 186.478C33.2208 189.298 34.8575 192.162 36.5554 195.059L37.4181 194.553C35.7238 191.662 34.0905 188.805 32.5181 185.991L31.6451 186.478ZM41.6472 203.54C43.3528 206.314 45.1125 209.109 46.9267 211.918L47.7667 211.376C45.9567 208.573 44.2008 205.784 42.4991 203.017L41.6472 203.54ZM52.399 220.183C54.2388 222.893 56.1287 225.609 58.069 228.324L58.8826 227.742C56.9471 225.034 55.0618 222.325 53.2263 219.622L52.399 220.183ZM63.9302 236.311C65.9018 238.928 67.9205 241.537 69.9867 244.132L70.7691 243.509C68.7086 240.921 66.6952 238.319 64.7289 235.71L63.9302 236.311ZM76.2628 251.795C78.3834 254.311 80.5499 256.808 82.7624 259.281L83.5076 258.614C81.3019 256.149 79.1419 253.66 77.0274 251.151L76.2628 251.795ZM89.4891 266.566C91.7599 268.948 94.0756 271.301 96.4364 273.618L97.1369 272.904C94.7843 270.595 92.4764 268.25 90.213 265.876L89.4891 266.566ZM103.627 280.434C106.062 282.661 108.541 284.847 111.065 286.987L111.712 286.224C109.198 284.092 106.728 281.915 104.302 279.696L103.627 280.434ZM118.751 293.248C121.35 295.28 123.994 297.262 126.683 299.186L127.265 298.373C124.588 296.457 121.956 294.484 119.367 292.46L118.751 293.248ZM134.867 304.777C137.634 306.576 140.446 308.315 143.302 309.987L143.807 309.124C140.965 307.46 138.167 305.73 135.412 303.938L134.867 304.777ZM151.982 314.786C154.905 316.309 157.873 317.76 160.885 319.135L161.3 318.225C158.305 316.858 155.352 315.414 152.444 313.899L151.982 314.786ZM170.008 323.008C173.076 324.213 176.187 325.339 179.341 326.379L179.654 325.429C176.518 324.395 173.425 323.276 170.374 322.077L170.008 323.008ZM188.847 329.216C192.016 330.064 195.227 330.826 198.48 331.497L198.682 330.517C195.448 329.851 192.256 329.093 189.105 328.25L188.847 329.216ZM208.247 333.215C211.503 333.69 214.798 334.073 218.134 334.362L218.22 333.366C214.904 333.079 211.628 332.697 208.391 332.225L208.247 333.215ZM227.99 334.928C229.65 334.976 231.32 335 233 335L233 334C231.33 334 229.669 333.976 228.018 333.929L227.99 334.928ZM233 335C234.695 335 236.378 334.981 238.051 334.943L238.028 333.943C236.363 333.981 234.687 334 233 334L233 335ZM247.953 334.488C251.273 334.257 254.548 333.951 257.779 333.57L257.662 332.577C254.447 332.955 251.188 333.261 247.884 333.49L247.953 334.488ZM267.602 332.165C270.879 331.612 274.109 330.981 277.295 330.276L277.079 329.3C273.91 330.001 270.696 330.628 267.435 331.178L267.602 332.165ZM286.916 327.884C290.116 326.999 293.269 326.038 296.377 325.003L296.061 324.054C292.969 325.084 289.833 326.04 286.649 326.92L286.916 327.884ZM305.686 321.633C308.773 320.424 311.814 319.142 314.811 317.789L314.399 316.878C311.418 318.224 308.393 319.499 305.322 320.702L305.686 321.633ZM323.724 313.494C326.667 311.985 329.567 310.407 332.424 308.764L331.926 307.897C329.082 309.532 326.197 311.102 323.268 312.604L323.724 313.494ZM340.887 303.632C343.669 301.857 346.409 300.02 349.111 298.125L348.537 297.306C345.847 299.193 343.118 301.022 340.349 302.789L340.887 303.632ZM357.098 292.267C359.712 290.266 362.289 288.21 364.831 286.103L364.193 285.333C361.661 287.432 359.094 289.48 356.49 291.473L357.098 292.267ZM372.339 279.643C374.793 277.453 377.214 275.216 379.604 272.935L378.913 272.212C376.532 274.485 374.119 276.715 371.673 278.897L372.339 279.643ZM386.656 265.988C388.964 263.643 391.242 261.259 393.492 258.838L392.76 258.157C390.516 260.571 388.244 262.949 385.944 265.286L386.656 265.988ZM400.131 251.502C402.308 249.033 404.459 246.532 406.585 244.001L405.819 243.358C403.698 245.883 401.552 248.378 399.381 250.841L400.131 251.502ZM412.862 236.36C414.925 233.793 416.965 231.2 418.984 228.585L418.192 227.974C416.177 230.584 414.141 233.172 412.082 235.733L412.862 236.36ZM424.955 220.705C426.922 218.063 428.87 215.4 430.799 212.722L429.988 212.137C428.061 214.812 426.117 217.47 424.153 220.108L424.955 220.705ZM436.521 204.659C438.41 201.959 440.282 199.246 442.14 196.522L441.313 195.959C439.458 198.679 437.588 201.389 435.701 204.086L436.521 204.659ZM447.668 188.322C449.497 185.581 451.312 182.832 453.115 180.079L452.279 179.532C450.477 182.282 448.664 185.029 446.837 187.768L447.668 188.322ZM458.508 171.782C460.295 169.013 462.071 166.243 463.837 163.474L462.994 162.936C461.228 165.703 459.453 168.472 457.667 171.24L458.508 171.782ZM469.148 155.117C470.913 152.331 472.67 149.55 474.42 146.777L473.574 146.243C471.824 149.016 470.068 151.797 468.304 154.582L469.148 155.117ZM479.704 138.403C481.467 135.611 483.225 132.83 484.979 130.064L484.135 129.529C482.38 132.295 480.622 135.077 478.858 137.869L479.704 138.403ZM490.294 121.719C492.078 118.931 493.86 116.162 495.641 113.416L494.802 112.872C493.019 115.62 491.236 118.391 489.451 121.18L490.294 121.719ZM501.048 105.154C502.878 102.383 504.71 99.6405 506.545 96.9291L505.716 96.3687C503.88 99.0835 502.046 101.829 500.214 104.603L501.048 105.154ZM512.112 88.8169C514.018 86.0808 515.93 83.3824 517.848 80.726L517.038 80.1405C515.116 82.8019 513.201 85.5049 511.292 88.2452L512.112 88.8169ZM523.679 72.8184C525.687 70.1529 527.705 67.5372 529.736 64.9761L528.952 64.3549C526.916 66.923 524.893 69.5451 522.88 72.2166L523.679 72.8184ZM535.972 57.332C538.105 54.7959 540.253 52.3237 542.418 49.9205L541.676 49.2511C539.502 51.6634 537.346 54.1442 535.207 56.6883L535.972 57.332ZM549.198 42.6902C551.519 40.3154 553.863 38.0233 556.233 35.8197L555.552 35.0874C553.17 37.3025 550.815 39.6058 548.483 41.9911L549.198 42.6902ZM563.608 29.3233C566.173 27.19 568.77 25.1629 571.402 23.2493L570.814 22.4405C568.164 24.3676 565.549 26.4081 562.968 28.5544L563.608 29.3233ZM579.553 17.7638C582.359 16.0272 585.205 14.4203 588.096 12.951L587.643 12.0595C584.726 13.5421 581.855 15.1629 579.027 16.9135L579.553 17.7638ZM597.068 8.89989C600.112 7.69607 603.207 6.64344 606.357 5.75039L606.084 4.78832C602.901 5.69074 599.775 6.7542 596.7 7.96997L597.068 8.89989ZM615.92 3.5678C619.124 3.01081 622.385 2.61562 625.707 2.39029L625.639 1.39258C622.282 1.62027 618.987 2.01964 615.749 2.58258L615.92 3.5678ZM635.461 2.2186C637.112 2.27075 638.778 2.36374 640.46 2.49849L640.54 1.50169C638.842 1.36566 637.16 1.27176 635.493 1.2191L635.461 2.2186ZM640.46 2.49849C642.215 2.6391 643.938 2.82057 645.63 3.04121L645.759 2.0496C644.051 1.8268 642.311 1.6436 640.54 1.50169L640.46 2.49849ZM655.726 4.89511C659.161 5.71792 662.453 6.71221 665.608 7.86007L665.95 6.92034C662.759 5.75945 659.431 4.75424 655.959 3.92261L655.726 4.89511ZM675.047 11.9366C678.166 13.5085 681.131 15.2394 683.95 17.1067L684.502 16.273C681.651 14.3845 678.652 12.6337 675.497 11.0436L675.047 11.9366ZM692.186 23.2708C694.842 25.5035 697.345 27.8615 699.705 30.3184L700.426 29.6257C698.043 27.1445 695.514 24.762 692.829 22.5053L692.186 23.2708ZM706.463 38.0922C708.612 40.8162 710.615 43.6176 712.482 46.4671L713.319 45.919C711.436 43.0466 709.416 40.2214 707.249 37.473L706.463 38.0922ZM717.791 55.32C719.472 58.3849 721.013 61.4696 722.427 64.5401L723.335 64.122C721.913 61.0317 720.36 57.926 718.668 54.8392L717.791 55.32ZM726.436 74.0443C727.718 77.3682 728.857 80.6309 729.867 83.7863L730.82 83.4812C729.803 80.3088 728.658 77.0277 727.369 73.6845L726.436 74.0443ZM732.749 93.7101C733.704 97.3654 734.477 100.763 735.101 103.806L736.08 103.606C735.454 100.546 734.676 97.1314 733.716 93.4573L732.749 93.7101ZM736.881 113.964C736.913 114.182 736.943 114.395 736.971 114.6L737.962 114.463C737.933 114.255 737.903 114.041 737.871 113.821L736.881 113.964ZM233 334.5L233 335.5L233 334.5ZM640.5 2.00009L640.42 2.9969L640.5 2.00009ZM738 119L742.518 108.374L731.057 109.774L738 119ZM1.00011 119C0.0536457 119.323 0.0536568 119.323 0.0536699 119.323C0.0536772 119.323 0.0536924 119.323 0.0537067 119.323C0.0537355 119.323 0.0537726 119.323 0.0538181 119.323C0.0539091 119.324 0.0540336 119.324 0.0541917 119.324C0.0545079 119.325 0.0549581 119.327 0.0555426 119.328C0.0567116 119.332 0.0584171 119.337 0.0606598 119.343C0.0651449 119.356 0.0717778 119.376 0.0805604 119.401C0.0981254 119.452 0.124289 119.528 0.159065 119.627C0.228619 119.826 0.332625 120.122 0.471201 120.509C0.748351 121.284 1.16379 122.427 1.71845 123.902L3.59058 123.199C3.03983 121.734 2.62807 120.601 2.35437 119.836C2.21752 119.453 2.11519 119.162 2.04726 118.968C2.0133 118.871 1.98793 118.797 1.97116 118.749C1.96277 118.724 1.95653 118.706 1.95243 118.694C1.95038 118.688 1.94887 118.684 1.9479 118.681C1.94741 118.68 1.94705 118.679 1.94683 118.678C1.94672 118.678 1.94665 118.677 1.9466 118.677C1.94658 118.677 1.94657 118.677 1.94656 118.677C1.94656 118.677 1.94656 118.677 1.94656 118.677C1.94657 118.677 1.94657 118.677 1.00011 119ZM5.37277 133.203C6.47301 135.898 7.74534 138.934 9.19101 142.263L11.0255 141.466C9.58599 138.151 8.31938 135.129 7.22444 132.447L5.37277 133.203ZM13.2479 151.345C14.5623 154.209 15.9761 157.218 17.4899 160.35L19.2907 159.48C17.7828 156.36 16.3747 153.364 15.0656 150.511L13.2479 151.345ZM21.8973 169.247C23.3475 172.103 24.8712 175.037 26.4686 178.035L28.2337 177.095C26.6427 174.109 25.1251 171.187 23.6806 168.341L21.8973 169.247ZM31.2086 186.722C32.7859 189.545 34.4243 192.411 36.124 195.312L37.8495 194.3C36.157 191.412 34.5254 188.558 32.9545 185.747L31.2086 186.722ZM41.2213 203.802C42.9287 206.579 44.6904 209.377 46.5066 212.189L48.1867 211.104C46.3788 208.305 44.6249 205.519 42.925 202.755L41.2213 203.802ZM51.9853 220.464C53.8273 223.177 55.7195 225.896 57.6622 228.614L59.2893 227.452C57.3563 224.747 55.4732 222.041 53.64 219.341L51.9853 220.464ZM63.5309 236.612C65.505 239.232 67.5265 241.844 69.5955 244.444L71.1603 243.198C69.1026 240.613 67.092 238.015 65.1282 235.409L63.5309 236.612ZM75.8805 252.118C78.0042 254.637 80.1739 257.138 82.3899 259.614L83.8802 258.28C81.6779 255.819 79.5211 253.334 77.4097 250.829L75.8805 252.118ZM89.1272 266.911C91.4017 269.297 93.7213 271.653 96.0861 273.975L97.4871 272.548C95.1386 270.242 92.8346 267.901 90.5749 265.531L89.1272 266.911ZM103.29 280.803C105.729 283.034 108.213 285.224 110.741 287.368L112.035 285.843C109.526 283.715 107.061 281.541 104.64 279.327L103.29 280.803ZM118.443 293.642C121.048 295.678 123.697 297.664 126.392 299.593L127.556 297.967C124.885 296.055 122.258 294.086 119.675 292.067L118.443 293.642ZM134.594 305.196C137.368 307 140.186 308.743 143.049 310.419L144.059 308.693C141.224 307.033 138.433 305.307 135.685 303.519L134.594 305.196ZM151.751 315.23C154.682 316.756 157.657 318.211 160.677 319.59L161.508 317.77C158.52 316.406 155.576 314.967 152.675 313.456L151.751 315.23ZM169.826 323.474C172.902 324.682 176.021 325.811 179.184 326.854L179.811 324.954C176.683 323.923 173.599 322.807 170.557 321.612L169.826 323.474ZM188.718 329.699C191.896 330.55 195.117 331.314 198.379 331.986L198.783 330.028C195.559 329.363 192.376 328.608 189.235 327.767L188.718 329.699ZM208.175 333.71C211.44 334.186 214.745 334.571 218.091 334.86L218.263 332.867C214.957 332.582 211.69 332.201 208.464 331.731L208.175 333.71ZM227.975 335.428C229.641 335.476 231.316 335.5 233 335.5L233 333.5C231.335 333.5 229.679 333.476 228.033 333.429L227.975 335.428ZM233 335.5C234.698 335.5 236.386 335.481 238.062 335.442L238.016 333.443C236.355 333.481 234.683 333.5 233 333.5L233 335.5ZM247.988 334.986C251.316 334.756 254.598 334.448 257.838 334.066L257.604 332.08C254.396 332.458 251.145 332.763 247.849 332.991L247.988 334.986ZM267.685 332.658C270.97 332.103 274.209 331.471 277.403 330.764L276.971 328.811C273.81 329.511 270.604 330.137 267.352 330.685L267.685 332.658ZM287.049 328.366C290.257 327.479 293.419 326.515 296.535 325.477L295.903 323.58C292.819 324.607 289.691 325.561 286.516 326.438L287.049 328.366ZM305.869 322.098C308.963 320.887 312.012 319.601 315.016 318.245L314.193 316.422C311.22 317.765 308.202 319.037 305.14 320.236L305.869 322.098ZM323.952 313.939C326.903 312.426 329.809 310.844 332.674 309.197L331.677 307.463C328.84 309.095 325.961 310.661 323.04 312.159L323.952 313.939ZM341.156 304.053C343.944 302.275 346.691 300.434 349.398 298.534L348.249 296.897C345.565 298.78 342.843 300.605 340.081 302.367L341.156 304.053ZM357.402 292.664C360.021 290.659 362.604 288.599 365.15 286.488L363.874 284.949C361.346 287.043 358.785 289.087 356.186 291.076L357.402 292.664ZM372.671 280.016C375.13 277.823 377.556 275.582 379.949 273.297L378.568 271.85C376.19 274.12 373.782 276.346 371.34 278.524L372.671 280.016ZM387.013 266.338C389.324 263.99 391.605 261.602 393.859 259.178L392.394 257.817C390.153 260.227 387.885 262.601 385.587 264.935L387.013 266.338ZM400.506 251.833C402.686 249.361 404.839 246.857 406.968 244.323L405.436 243.036C403.317 245.558 401.175 248.051 399.006 250.51L400.506 251.833ZM413.252 236.673C415.317 234.104 417.359 231.508 419.38 228.891L417.797 227.668C415.783 230.277 413.749 232.861 411.693 235.42L413.252 236.673ZM425.356 221.004C427.325 218.359 429.274 215.695 431.205 213.014L429.582 211.845C427.657 214.518 425.714 217.174 423.752 219.81L425.356 221.004ZM436.93 204.946C438.821 202.244 440.694 199.529 442.553 196.804L440.9 195.677C439.046 198.396 437.177 201.105 435.292 203.799L436.93 204.946ZM448.084 188.6C449.914 185.857 451.73 183.107 453.534 180.353L451.86 179.258C450.06 182.007 448.247 184.752 446.421 187.49L448.084 188.6ZM458.928 172.053C460.715 169.283 462.492 166.512 464.259 163.743L462.573 162.667C460.807 165.434 459.033 168.202 457.247 170.969L458.928 172.053ZM469.571 155.385C471.336 152.598 473.093 149.817 474.843 147.044L473.151 145.976C471.401 148.749 469.645 151.529 467.881 154.315L469.571 155.385ZM480.127 138.67C481.89 135.878 483.647 133.097 485.401 130.332L483.712 129.261C481.958 132.028 480.199 134.81 478.436 137.603L480.127 138.67ZM490.715 121.989C492.499 119.201 494.28 116.434 496.06 113.688L494.383 112.6C492.599 115.349 490.816 118.121 489.03 120.911L490.715 121.989ZM501.465 105.429C503.295 102.66 505.125 99.919 506.959 97.2093L505.302 96.0885C503.464 98.805 501.63 101.552 499.796 104.327L501.465 105.429ZM512.522 89.1028C514.427 86.3687 516.337 83.6727 518.254 81.0187L516.632 79.8477C514.709 82.5116 512.792 85.2169 510.881 87.9594L512.522 89.1028ZM524.078 73.1193C526.084 70.4568 528.1 67.8444 530.127 65.2867L528.56 64.0443C526.522 66.6158 524.496 69.2412 522.481 71.9157L524.078 73.1193ZM536.355 57.6538C538.484 55.1218 540.628 52.6539 542.79 50.2552L541.304 48.9164C539.126 51.3332 536.967 53.8183 534.824 56.3665L536.355 57.6538ZM549.555 43.0397C551.872 40.6703 554.21 38.3836 556.573 36.1858L555.211 34.7213C552.823 36.9421 550.462 39.251 548.125 41.6415L549.555 43.0397ZM563.927 29.7078C566.485 27.5809 569.074 25.5606 571.696 23.6537L570.52 22.0361C567.86 23.97 565.238 26.0171 562.649 28.17L563.927 29.7078ZM579.817 18.1889C582.61 16.4593 585.444 14.8594 588.322 13.3967L587.416 11.6138C584.486 13.1031 581.603 14.7308 578.764 16.4884L579.817 18.1889ZM597.252 9.36485C600.281 8.16701 603.36 7.11979 606.493 6.23143L605.947 4.30728C602.748 5.21439 599.606 6.28327 596.517 7.50501L597.252 9.36485ZM616.006 4.06041C619.192 3.5064 622.436 3.11329 625.741 2.88915L625.605 0.893731C622.231 1.12259 618.918 1.52405 615.664 2.08997L616.006 4.06041ZM635.445 2.71835C637.088 2.77024 638.746 2.86279 640.42 2.9969L640.58 1.00329C638.874 0.866624 637.184 0.772268 635.508 0.71935L635.445 2.71835ZM640.42 2.9969C642.167 3.13685 643.882 3.31746 645.565 3.53701L645.824 1.5538C644.107 1.32992 642.359 1.14585 640.58 1.00329L640.42 2.9969ZM655.609 5.38136C659.026 6.19976 662.3 7.18858 665.437 8.32994L666.121 6.45047C662.912 5.28308 659.566 4.2724 656.075 3.43637L655.609 5.38136ZM674.822 12.3831C677.923 13.9459 680.871 15.6669 683.674 17.5236L684.778 15.8562C681.911 13.9571 678.895 12.1963 675.722 10.5971L674.822 12.3831ZM691.864 23.6536C694.506 25.8743 696.996 28.22 699.344 30.6647L700.787 29.2794C698.392 26.786 695.85 24.3913 693.151 22.1226L691.864 23.6536ZM706.071 38.4019C708.21 41.1137 710.204 43.9031 712.064 46.7412L713.737 45.645C711.847 42.7611 709.819 39.924 707.641 37.1634L706.071 38.4019ZM717.352 55.5605C719.027 58.6144 720.564 61.6885 721.972 64.7492L723.789 63.9129C722.362 60.8128 720.805 57.6965 719.106 54.5987L717.352 55.5605ZM725.97 74.2242C727.248 77.5384 728.383 80.7919 729.391 83.9388L731.296 83.3286C730.277 80.1477 729.129 76.8575 727.836 73.5046L725.97 74.2242ZM732.265 93.8365C733.218 97.4824 733.989 100.871 734.611 103.907L736.57 103.506C735.942 100.438 735.162 97.0144 734.2 93.3309L732.265 93.8365Z" fill="black"/>
</svg>
