<svg width="746" height="171" viewBox="0 0 746 171" fill="none" xmlns="http://www.w3.org/2000/svg">
<path d="M21.96 56V31.44L26.28 42.72L0.84 -3.8147e-06H20.76L37.96 29.2H26.36L43.72 -3.8147e-06H61.96L36.68 42.72L40.84 31.44V56H21.96ZM82.1513 56.8C77.1913 56.8 72.7913 55.84 68.9513 53.92C65.1646 51.9467 62.1779 49.2533 59.9913 45.84C57.8046 42.4267 56.7113 38.5067 56.7113 34.08C56.7113 29.6533 57.8046 25.7333 59.9913 22.32C62.1779 18.9067 65.1646 16.24 68.9513 14.32C72.7913 12.4 77.1913 11.44 82.1513 11.44C87.1113 11.44 91.5113 12.4 95.3513 14.32C99.1913 16.24 102.178 18.9067 104.311 22.32C106.498 25.7333 107.591 29.6533 107.591 34.08C107.591 38.5067 106.498 42.4267 104.311 45.84C102.178 49.2533 99.1913 51.9467 95.3513 53.92C91.5113 55.84 87.1113 56.8 82.1513 56.8ZM82.1513 42.72C83.4846 42.72 84.6846 42.4 85.7513 41.76C86.8179 41.12 87.6713 40.16 88.3113 38.88C88.9513 37.5467 89.2713 35.9467 89.2713 34.08C89.2713 32.16 88.9513 30.5867 88.3113 29.36C87.6713 28.08 86.8179 27.12 85.7513 26.48C84.6846 25.84 83.4846 25.52 82.1513 25.52C80.8179 25.52 79.6179 25.84 78.5512 26.48C77.4846 27.12 76.6313 28.08 75.9913 29.36C75.3513 30.5867 75.0312 32.16 75.0312 34.08C75.0312 35.9467 75.3513 37.5467 75.9913 38.88C76.6313 40.16 77.4846 41.12 78.5512 41.76C79.6179 42.4 80.8179 42.72 82.1513 42.72ZM131.49 56.8C128.023 56.8 124.877 56.1067 122.05 54.72C119.277 53.28 117.09 51.0667 115.49 48.08C113.89 45.04 113.09 41.1467 113.09 36.4V12.24H131.17V33.28C131.17 36.3733 131.677 38.5333 132.69 39.76C133.703 40.9867 135.09 41.6 136.85 41.6C137.917 41.6 138.903 41.3333 139.81 40.8C140.77 40.2133 141.543 39.28 142.13 38C142.717 36.6667 143.01 34.9333 143.01 32.8V12.24H161.09V56H143.89V43.36L147.33 46.8C145.783 50.2133 143.57 52.7467 140.69 54.4C137.863 56 134.797 56.8 131.49 56.8ZM169.109 56V12.24H186.309V25.44L183.509 21.68C184.843 18.2667 186.976 15.7067 189.909 14C192.843 12.2933 196.363 11.44 200.469 11.44V27.44C199.669 27.3333 198.949 27.2533 198.309 27.2C197.723 27.1467 197.109 27.12 196.469 27.12C193.749 27.12 191.509 27.84 189.749 29.28C188.043 30.6667 187.189 33.0933 187.189 36.56V56H169.109ZM251.818 72.32C247.498 72.32 243.445 71.8667 239.658 70.96C235.871 70.0533 232.618 68.6933 229.898 66.88L235.978 54.56C237.685 55.8933 239.845 56.9333 242.458 57.68C245.125 58.48 247.631 58.88 249.978 58.88C253.711 58.88 256.378 58.08 257.978 56.48C259.578 54.9333 260.378 52.6933 260.378 49.76V46.08L261.178 32.48L261.258 18.88V12.24H278.458V47.28C278.458 55.76 276.111 62.0533 271.418 66.16C266.725 70.2667 260.191 72.32 251.818 72.32ZM248.298 53.6C244.618 53.6 241.178 52.7467 237.978 51.04C234.778 49.28 232.191 46.8267 230.218 43.68C228.245 40.5333 227.258 36.8 227.258 32.48C227.258 28.16 228.245 24.4267 230.218 21.28C232.191 18.1333 234.778 15.7067 237.978 14C241.178 12.2933 244.618 11.44 248.298 11.44C252.085 11.44 255.178 12.1867 257.578 13.68C260.031 15.1733 261.845 17.4933 263.018 20.64C264.191 23.7333 264.778 27.68 264.778 32.48C264.778 37.28 264.191 41.2533 263.018 44.4C261.845 47.4933 260.031 49.8133 257.578 51.36C255.178 52.8533 252.085 53.6 248.298 53.6ZM253.098 39.52C254.538 39.52 255.818 39.2267 256.938 38.64C258.058 38.0533 258.938 37.2267 259.578 36.16C260.218 35.0933 260.538 33.8667 260.538 32.48C260.538 31.04 260.218 29.8133 259.578 28.8C258.938 27.7333 258.058 26.9333 256.938 26.4C255.818 25.8133 254.538 25.52 253.098 25.52C251.711 25.52 250.431 25.8133 249.258 26.4C248.138 26.9333 247.231 27.7333 246.538 28.8C245.898 29.8133 245.578 31.04 245.578 32.48C245.578 33.8667 245.898 35.0933 246.538 36.16C247.231 37.2267 248.138 38.0533 249.258 38.64C250.431 39.2267 251.711 39.52 253.098 39.52ZM312.933 56V48.24L311.653 46.16V31.44C311.653 29.3067 310.986 27.68 309.653 26.56C308.373 25.44 306.266 24.88 303.333 24.88C301.36 24.88 299.36 25.2 297.333 25.84C295.306 26.4267 293.573 27.2533 292.133 28.32L286.373 16.4C288.933 14.8 292 13.5733 295.573 12.72C299.146 11.8667 302.64 11.44 306.053 11.44C313.573 11.44 319.386 13.12 323.493 16.48C327.653 19.84 329.733 25.1733 329.733 32.48V56H312.933ZM300.533 56.8C296.96 56.8 293.973 56.1867 291.573 54.96C289.173 53.7333 287.36 52.1067 286.133 50.08C284.906 48 284.293 45.7067 284.293 43.2C284.293 40.3733 285.013 37.9733 286.453 36C287.893 34.0267 290.08 32.5333 293.013 31.52C296 30.5067 299.76 30 304.293 30H313.413V38.72H307.173C305.253 38.72 303.84 39.04 302.933 39.68C302.08 40.2667 301.653 41.1733 301.653 42.4C301.653 43.4133 302.026 44.2667 302.773 44.96C303.573 45.6 304.64 45.92 305.973 45.92C307.2 45.92 308.32 45.6 309.333 44.96C310.4 44.2667 311.173 43.2 311.653 41.76L313.973 47.12C313.28 50.3733 311.813 52.8 309.573 54.4C307.333 56 304.32 56.8 300.533 56.8ZM358.667 56.8C352.64 56.8 347.947 55.36 344.587 52.48C341.227 49.5467 339.547 45.0667 339.547 39.04V2.4H357.627V38.88C357.627 40.2133 357.974 41.2533 358.667 42C359.414 42.7467 360.32 43.12 361.387 43.12C362.934 43.12 364.294 42.72 365.467 41.92L369.787 54.48C368.4 55.28 366.72 55.8667 364.747 56.24C362.827 56.6133 360.8 56.8 358.667 56.8ZM333.547 27.84V14.64H366.587V27.84H333.547ZM397.332 56.8C391.999 56.8 387.332 55.8133 383.332 53.84C379.385 51.8667 376.319 49.1733 374.132 45.76C371.945 42.2933 370.852 38.4 370.852 34.08C370.852 29.6533 371.919 25.7333 374.052 22.32C376.239 18.9067 379.199 16.24 382.932 14.32C386.719 12.4 390.959 11.44 395.652 11.44C399.972 11.44 403.945 12.2933 407.572 14C411.252 15.7067 414.185 18.24 416.372 21.6C418.612 24.96 419.732 29.12 419.732 34.08C419.732 34.72 419.705 35.44 419.652 36.24C419.599 36.9867 419.545 37.68 419.492 38.32H385.812V29.6H409.892L403.092 31.92C403.092 30.2133 402.772 28.7733 402.132 27.6C401.545 26.3733 400.719 25.44 399.652 24.8C398.585 24.1067 397.305 23.76 395.812 23.76C394.319 23.76 393.012 24.1067 391.892 24.8C390.825 25.44 389.999 26.3733 389.412 27.6C388.825 28.7733 388.532 30.2133 388.532 31.92V34.64C388.532 36.5067 388.905 38.1067 389.652 39.44C390.399 40.7733 391.465 41.7867 392.852 42.48C394.239 43.12 395.919 43.44 397.892 43.44C399.919 43.44 401.572 43.1733 402.852 42.64C404.185 42.1067 405.572 41.3067 407.012 40.24L416.452 49.76C414.319 52.0533 411.679 53.8133 408.532 55.04C405.439 56.2133 401.705 56.8 397.332 56.8ZM435.376 56L420.176 12.24H437.296L448.816 47.76H440.576L452.656 12.24H468.016L479.536 47.76H471.536L483.456 12.24H499.296L484.096 56H466.496L457.296 27.84H462.576L452.976 56H435.376ZM527.699 56V48.24L526.419 46.16V31.44C526.419 29.3067 525.752 27.68 524.419 26.56C523.139 25.44 521.032 24.88 518.099 24.88C516.125 24.88 514.125 25.2 512.099 25.84C510.072 26.4267 508.339 27.2533 506.899 28.32L501.139 16.4C503.699 14.8 506.765 13.5733 510.339 12.72C513.912 11.8667 517.405 11.44 520.819 11.44C528.339 11.44 534.152 13.12 538.259 16.48C542.419 19.84 544.499 25.1733 544.499 32.48V56H527.699ZM515.299 56.8C511.725 56.8 508.739 56.1867 506.339 54.96C503.939 53.7333 502.125 52.1067 500.899 50.08C499.672 48 499.059 45.7067 499.059 43.2C499.059 40.3733 499.779 37.9733 501.219 36C502.659 34.0267 504.845 32.5333 507.779 31.52C510.765 30.5067 514.525 30 519.059 30H528.179V38.72H521.939C520.019 38.72 518.605 39.04 517.699 39.68C516.845 40.2667 516.419 41.1733 516.419 42.4C516.419 43.4133 516.792 44.2667 517.539 44.96C518.339 45.6 519.405 45.92 520.739 45.92C521.965 45.92 523.085 45.6 524.099 44.96C525.165 44.2667 525.939 43.2 526.419 41.76L528.739 47.12C528.045 50.3733 526.579 52.8 524.339 54.4C522.099 56 519.085 56.8 515.299 56.8ZM561.131 72.32C558.731 72.32 556.278 71.9467 553.771 71.2C551.318 70.5067 549.345 69.5733 547.851 68.4L553.851 56C554.758 56.6933 555.771 57.2533 556.891 57.68C558.065 58.1067 559.185 58.32 560.251 58.32C561.851 58.32 563.078 57.9733 563.931 57.28C564.785 56.64 565.478 55.6533 566.011 54.32L567.851 49.68L569.131 47.92L583.131 12.24H600.251L582.251 56.88C580.651 60.88 578.785 64 576.651 66.24C574.571 68.48 572.225 70.0533 569.611 70.96C567.051 71.8667 564.225 72.32 561.131 72.32ZM565.371 58L546.331 12.24H564.891L578.011 46.32L565.371 58ZM648.12 56.8C642.093 56.8 637.4 55.36 634.04 52.48C630.68 49.5467 629 45.0667 629 39.04V2.4H647.08V38.88C647.08 40.2133 647.427 41.2533 648.12 42C648.867 42.7467 649.773 43.12 650.84 43.12C652.387 43.12 653.747 42.72 654.92 41.92L659.24 54.48C657.853 55.28 656.173 55.8667 654.2 56.24C652.28 56.6133 650.253 56.8 648.12 56.8ZM623 27.84V14.64H656.04V27.84H623ZM685.745 56.8C680.785 56.8 676.385 55.84 672.545 53.92C668.758 51.9467 665.772 49.2533 663.585 45.84C661.398 42.4267 660.305 38.5067 660.305 34.08C660.305 29.6533 661.398 25.7333 663.585 22.32C665.772 18.9067 668.758 16.24 672.545 14.32C676.385 12.4 680.785 11.44 685.745 11.44C690.705 11.44 695.105 12.4 698.945 14.32C702.785 16.24 705.772 18.9067 707.905 22.32C710.092 25.7333 711.185 29.6533 711.185 34.08C711.185 38.5067 710.092 42.4267 707.905 45.84C705.772 49.2533 702.785 51.9467 698.945 53.92C695.105 55.84 690.705 56.8 685.745 56.8ZM685.745 42.72C687.078 42.72 688.278 42.4 689.345 41.76C690.412 41.12 691.265 40.16 691.905 38.88C692.545 37.5467 692.865 35.9467 692.865 34.08C692.865 32.16 692.545 30.5867 691.905 29.36C691.265 28.08 690.412 27.12 689.345 26.48C688.278 25.84 687.078 25.52 685.745 25.52C684.412 25.52 683.212 25.84 682.145 26.48C681.078 27.12 680.225 28.08 679.585 29.36C678.945 30.5867 678.625 32.16 678.625 34.08C678.625 35.9467 678.945 37.5467 679.585 38.88C680.225 40.16 681.078 41.12 682.145 41.76C683.212 42.4 684.412 42.72 685.745 42.72ZM7.56 154V98H34.52C39.7467 98 44.2533 98.8533 48.04 100.56C51.88 102.267 54.84 104.72 56.92 107.92C59 111.067 60.04 114.8 60.04 119.12C60.04 123.44 59 127.173 56.92 130.32C54.84 133.467 51.88 135.92 48.04 137.68C44.2533 139.387 39.7467 140.24 34.52 140.24H18.04L26.44 132.16V154H7.56ZM26.44 134.24L18.04 125.68H33.32C35.9333 125.68 37.8533 125.093 39.08 123.92C40.36 122.747 41 121.147 41 119.12C41 117.093 40.36 115.493 39.08 114.32C37.8533 113.147 35.9333 112.56 33.32 112.56H18.04L26.44 104V134.24ZM66.4531 154V110.24H83.6531V123.44L80.8531 119.68C82.1865 116.267 84.3198 113.707 87.2531 112C90.1865 110.293 93.7065 109.44 97.8131 109.44V125.44C97.0131 125.333 96.2931 125.253 95.6531 125.2C95.0665 125.147 94.4531 125.12 93.8131 125.12C91.0931 125.12 88.8531 125.84 87.0931 127.28C85.3865 128.667 84.5331 131.093 84.5331 134.56V154H66.4531ZM125.667 154.8C120.707 154.8 116.307 153.84 112.467 151.92C108.68 149.947 105.694 147.253 103.507 143.84C101.32 140.427 100.227 136.507 100.227 132.08C100.227 127.653 101.32 123.733 103.507 120.32C105.694 116.907 108.68 114.24 112.467 112.32C116.307 110.4 120.707 109.44 125.667 109.44C130.627 109.44 135.027 110.4 138.867 112.32C142.707 114.24 145.694 116.907 147.827 120.32C150.014 123.733 151.107 127.653 151.107 132.08C151.107 136.507 150.014 140.427 147.827 143.84C145.694 147.253 142.707 149.947 138.867 151.92C135.027 153.84 130.627 154.8 125.667 154.8ZM125.667 140.72C127 140.72 128.2 140.4 129.267 139.76C130.334 139.12 131.187 138.16 131.827 136.88C132.467 135.547 132.787 133.947 132.787 132.08C132.787 130.16 132.467 128.587 131.827 127.36C131.187 126.08 130.334 125.12 129.267 124.48C128.2 123.84 127 123.52 125.667 123.52C124.334 123.52 123.134 123.84 122.067 124.48C121 125.12 120.147 126.08 119.507 127.36C118.867 128.587 118.547 130.16 118.547 132.08C118.547 133.947 118.867 135.547 119.507 136.88C120.147 138.16 121 139.12 122.067 139.76C123.134 140.4 124.334 140.72 125.667 140.72ZM175.966 154.8C172.179 154.8 168.659 153.893 165.406 152.08C162.206 150.213 159.646 147.6 157.726 144.24C155.806 140.827 154.846 136.773 154.846 132.08C154.846 127.387 155.806 123.36 157.726 120C159.646 116.587 162.206 113.973 165.406 112.16C168.659 110.347 172.179 109.44 175.966 109.44C179.806 109.44 182.952 110.267 185.406 111.92C187.859 113.52 189.672 116 190.846 119.36C192.019 122.667 192.606 126.907 192.606 132.08C192.606 137.307 192.046 141.6 190.926 144.96C189.859 148.32 188.099 150.8 185.646 152.4C183.246 154 180.019 154.8 175.966 154.8ZM180.286 140.72C181.619 140.72 182.819 140.4 183.886 139.76C184.952 139.12 185.806 138.16 186.446 136.88C187.086 135.547 187.406 133.947 187.406 132.08C187.406 130.16 187.086 128.587 186.446 127.36C185.806 126.08 184.952 125.12 183.886 124.48C182.819 123.84 181.619 123.52 180.286 123.52C178.952 123.52 177.752 123.84 176.686 124.48C175.619 125.12 174.766 126.08 174.126 127.36C173.486 128.587 173.166 130.16 173.166 132.08C173.166 133.947 173.486 135.547 174.126 136.88C174.766 138.16 175.619 139.12 176.686 139.76C177.752 140.4 178.952 140.72 180.286 140.72ZM187.966 154V148.08L187.886 132.08L187.086 116.08V94.64H205.166V154H187.966ZM231.412 154.8C227.945 154.8 224.799 154.107 221.972 152.72C219.199 151.28 217.012 149.067 215.412 146.08C213.812 143.04 213.012 139.147 213.012 134.4V110.24H231.092V131.28C231.092 134.373 231.599 136.533 232.612 137.76C233.625 138.987 235.012 139.6 236.772 139.6C237.839 139.6 238.825 139.333 239.732 138.8C240.692 138.213 241.465 137.28 242.052 136C242.639 134.667 242.932 132.933 242.932 130.8V110.24H261.012V154H243.812V141.36L247.252 144.8C245.705 148.213 243.492 150.747 240.612 152.4C237.785 154 234.719 154.8 231.412 154.8ZM292.551 154.8C287.538 154.8 283.085 153.84 279.191 151.92C275.298 150 272.231 147.333 269.991 143.92C267.805 140.453 266.711 136.507 266.711 132.08C266.711 127.653 267.805 123.733 269.991 120.32C272.231 116.907 275.298 114.24 279.191 112.32C283.085 110.4 287.538 109.44 292.551 109.44C297.885 109.44 302.445 110.587 306.231 112.88C310.018 115.173 312.631 118.347 314.071 122.4L300.071 129.28C299.165 127.253 298.045 125.787 296.711 124.88C295.431 123.973 294.018 123.52 292.471 123.52C291.138 123.52 289.885 123.84 288.711 124.48C287.591 125.12 286.685 126.08 285.991 127.36C285.351 128.587 285.031 130.16 285.031 132.08C285.031 134 285.351 135.6 285.991 136.88C286.685 138.16 287.591 139.12 288.711 139.76C289.885 140.4 291.138 140.72 292.471 140.72C294.018 140.72 295.431 140.267 296.711 139.36C298.045 138.453 299.165 136.987 300.071 134.96L314.071 141.84C312.631 145.893 310.018 149.067 306.231 151.36C302.445 153.653 297.885 154.8 292.551 154.8ZM340.151 154.8C334.125 154.8 329.431 153.36 326.071 150.48C322.711 147.547 321.031 143.067 321.031 137.04V100.4H339.111V136.88C339.111 138.213 339.458 139.253 340.151 140C340.898 140.747 341.805 141.12 342.871 141.12C344.418 141.12 345.778 140.72 346.951 139.92L351.271 152.48C349.885 153.28 348.205 153.867 346.231 154.24C344.311 154.613 342.285 154.8 340.151 154.8ZM315.031 125.84V112.64H348.071V125.84H315.031ZM380.373 154V98H399.253V154H380.373ZM438.181 109.44C441.541 109.44 444.581 110.133 447.301 111.52C450.021 112.853 452.155 114.96 453.701 117.84C455.301 120.72 456.101 124.453 456.101 129.04V154H438.021V132.16C438.021 129.44 437.541 127.52 436.581 126.4C435.621 125.227 434.315 124.64 432.661 124.64C431.435 124.64 430.288 124.933 429.221 125.52C428.208 126.053 427.381 126.96 426.741 128.24C426.155 129.52 425.861 131.253 425.861 133.44V154H407.781V110.24H424.981V123.04L421.541 119.36C423.248 116.053 425.541 113.573 428.421 111.92C431.355 110.267 434.608 109.44 438.181 109.44ZM483.934 154.8C480.148 154.8 476.628 153.893 473.374 152.08C470.174 150.213 467.614 147.6 465.694 144.24C463.774 140.827 462.814 136.773 462.814 132.08C462.814 127.387 463.774 123.36 465.694 120C467.614 116.587 470.174 113.973 473.374 112.16C476.628 110.347 480.148 109.44 483.934 109.44C487.774 109.44 490.921 110.267 493.374 111.92C495.828 113.52 497.641 116 498.814 119.36C499.988 122.667 500.574 126.907 500.574 132.08C500.574 137.307 500.014 141.6 498.894 144.96C497.828 148.32 496.068 150.8 493.614 152.4C491.214 154 487.988 154.8 483.934 154.8ZM488.254 140.72C489.588 140.72 490.788 140.4 491.854 139.76C492.921 139.12 493.774 138.16 494.414 136.88C495.054 135.547 495.374 133.947 495.374 132.08C495.374 130.16 495.054 128.587 494.414 127.36C493.774 126.08 492.921 125.12 491.854 124.48C490.788 123.84 489.588 123.52 488.254 123.52C486.921 123.52 485.721 123.84 484.654 124.48C483.588 125.12 482.734 126.08 482.094 127.36C481.454 128.587 481.134 130.16 481.134 132.08C481.134 133.947 481.454 135.547 482.094 136.88C482.734 138.16 483.588 139.12 484.654 139.76C485.721 140.4 486.921 140.72 488.254 140.72ZM495.934 154V148.08L495.854 132.08L495.054 116.08V94.64H513.134V154H495.934ZM539.381 154.8C535.914 154.8 532.767 154.107 529.941 152.72C527.167 151.28 524.981 149.067 523.381 146.08C521.781 143.04 520.981 139.147 520.981 134.4V110.24H539.061V131.28C539.061 134.373 539.567 136.533 540.581 137.76C541.594 138.987 542.981 139.6 544.741 139.6C545.807 139.6 546.794 139.333 547.701 138.8C548.661 138.213 549.434 137.28 550.021 136C550.607 134.667 550.901 132.933 550.901 130.8V110.24H568.981V154H551.781V141.36L555.221 144.8C553.674 148.213 551.461 150.747 548.581 152.4C545.754 154 542.687 154.8 539.381 154.8ZM594.12 154.8C590.387 154.8 586.707 154.4 583.08 153.6C579.453 152.8 576.52 151.76 574.28 150.48L579.24 138.56C581.32 139.787 583.72 140.747 586.44 141.44C589.213 142.133 591.907 142.48 594.52 142.48C596.707 142.48 598.173 142.293 598.92 141.92C599.72 141.547 600.12 141.04 600.12 140.4C600.12 139.76 599.667 139.307 598.76 139.04C597.853 138.72 596.653 138.48 595.16 138.32C593.667 138.16 592.013 137.973 590.2 137.76C588.44 137.493 586.653 137.12 584.84 136.64C583.027 136.16 581.373 135.44 579.88 134.48C578.387 133.52 577.187 132.24 576.28 130.64C575.373 128.987 574.92 126.907 574.92 124.4C574.92 121.627 575.747 119.12 577.4 116.88C579.107 114.64 581.613 112.853 584.92 111.52C588.28 110.133 592.413 109.44 597.32 109.44C600.52 109.44 603.72 109.733 606.92 110.32C610.12 110.907 612.867 111.813 615.16 113.04L610.2 124.96C607.96 123.733 605.747 122.907 603.56 122.48C601.427 122 599.427 121.76 597.56 121.76C595.267 121.76 593.693 121.973 592.84 122.4C592.04 122.827 591.64 123.307 591.64 123.84C591.64 124.48 592.093 124.96 593 125.28C593.907 125.6 595.107 125.84 596.6 126C598.093 126.16 599.72 126.373 601.48 126.64C603.293 126.853 605.08 127.227 606.84 127.76C608.653 128.24 610.307 128.96 611.8 129.92C613.293 130.88 614.493 132.187 615.4 133.84C616.307 135.44 616.76 137.493 616.76 140C616.76 142.613 615.933 145.067 614.28 147.36C612.627 149.6 610.12 151.413 606.76 152.8C603.4 154.133 599.187 154.8 594.12 154.8ZM643.354 154.8C637.328 154.8 632.634 153.36 629.274 150.48C625.914 147.547 624.234 143.067 624.234 137.04V100.4H642.314V136.88C642.314 138.213 642.661 139.253 643.354 140C644.101 140.747 645.008 141.12 646.074 141.12C647.621 141.12 648.981 140.72 650.154 139.92L654.474 152.48C653.088 153.28 651.408 153.867 649.434 154.24C647.514 154.613 645.488 154.8 643.354 154.8ZM618.234 125.84V112.64H651.274V125.84H618.234ZM659.031 154V110.24H676.231V123.44L673.431 119.68C674.765 116.267 676.898 113.707 679.831 112C682.765 110.293 686.285 109.44 690.391 109.44V125.44C689.591 125.333 688.871 125.253 688.231 125.2C687.645 125.147 687.031 125.12 686.391 125.12C683.671 125.12 681.431 125.84 679.671 127.28C677.965 128.667 677.111 131.093 677.111 134.56V154H659.031ZM706.288 170.32C703.888 170.32 701.434 169.947 698.928 169.2C696.474 168.507 694.501 167.573 693.008 166.4L699.008 154C699.914 154.693 700.928 155.253 702.048 155.68C703.221 156.107 704.341 156.32 705.408 156.32C707.008 156.32 708.234 155.973 709.088 155.28C709.941 154.64 710.634 153.653 711.168 152.32L713.008 147.68L714.288 145.92L728.288 110.24H745.408L727.408 154.88C725.808 158.88 723.941 162 721.808 164.24C719.728 166.48 717.381 168.053 714.768 168.96C712.208 169.867 709.381 170.32 706.288 170.32ZM710.528 156L691.487 110.24H710.048L723.168 144.32L710.528 156Z" fill="black"/>
</svg>
